<?xml version="1.0" encoding="utf-8"?>
<svg viewBox="0 0 500 500" xmlns="http://www.w3.org/2000/svg">
  <rect x="0" y="0" width="500" height="500" style="stroke: none; fill: rgb(41, 133, 238);"/>
  <path d="M 214.62 250.029 Q 214.62 249.641 214.341 249.386 Q 214.062 249.13 213.621 248.921 Q 213.179 248.711 212.691 248.494 Q 212.202 248.277 211.761 247.991 Q 211.319 247.704 211.04 247.262 Q 210.761 246.82 210.761 246.185 Q 210.761 246.185 210.893 246.185 Q 211.024 246.185 211.234 246.185 Q 211.443 246.185 211.644 246.185 Q 211.846 246.185 211.985 246.185 Q 212.125 246.185 212.125 246.185 Q 212.125 246.572 212.404 246.828 Q 212.683 247.084 213.125 247.285 Q 213.566 247.487 214.062 247.712 Q 214.558 247.936 214.992 248.231 Q 215.426 248.525 215.713 248.952 Q 216 249.378 216 250.029 Q 216 250.029 215.86 250.029 Q 215.721 250.029 215.512 250.029 Q 215.302 250.029 215.101 250.029 Q 214.899 250.029 214.76 250.029 Q 214.62 250.029 214.62 250.029 Z M 213.303 252.276 L 213.303 251.052 Q 213.876 251.052 214.248 250.765 Q 214.62 250.478 214.62 250.029 L 216 250.029 Q 216 250.68 215.651 251.191 Q 215.302 251.703 214.698 251.99 Q 214.093 252.276 213.303 252.276 Z M 210.761 246.185 Q 210.761 245.549 211.079 245.046 Q 211.396 244.542 211.97 244.255 Q 212.543 243.968 213.241 243.968 L 213.241 245.193 Q 212.76 245.193 212.443 245.472 Q 212.125 245.751 212.125 246.185 Z M 211.83 249.703 Q 211.908 250.385 212.326 250.719 Q 212.745 251.052 213.303 251.052 L 213.303 252.276 Q 212.59 252.276 211.985 251.982 Q 211.381 251.687 211.001 251.16 Q 210.621 250.633 210.528 249.967 Z M 214.698 246.541 Q 214.62 245.844 214.21 245.518 Q 213.799 245.193 213.241 245.193 L 213.241 243.968 Q 213.969 243.968 214.558 244.263 Q 215.147 244.557 215.535 245.077 Q 215.922 245.596 216.015 246.278 Z" transform="matrix(47.378944396972656, 0, 0, 42.35374069213867, -9860.8564453125, -10256.1396484375)" style="fill: rgb(255, 255, 255);"/>
</svg>